#!OML:ASF H:\ManfredObstacles\Project 1\Capture day 2\Session 1\male.ASF
:FULLY-SPECIFIED
:DEGREES
382
root 0.248079 8.28588 -3.05126 -124.478 -3.1064 -180.353
lowerback 35.2198 -0.338227 3.26459
upperback 2.72877 0.255388 2.13033
thorax -14.8965 -0.396459 0.562491
lowerneck -28.2941 0.761275 4.6022
upperneck 17.2381 -0.772169 -0.00922042
head 10.0881 -0.0199474 -0.864909
rclavicle 1.09332e-014 1.53561e-014
rhumerus -4.89258 -11.1939 -71.1962
rradius 67.7578
rwrist 27.5763
rhand -49.4962 -10.5528
rfingers 7.12502
rthumb -22.1055 -39.3092
lclavicle 1.09332e-014 1.53561e-014
lhumerus 37.056 -10.5853 65.7706
lradius 39.6299
lwrist -41.256
lhand -42.0273 23.3578
lfingers 7.12502
lthumb -14.9215 52.8004
rfemur -82.3785 -20.8536 12.9267
rtibia 139.146
rfoot -30.8232 -14.4813
rtoes -33.8646
lfemur -38.0278 -21.2617 -24.9315
ltibia 97.5628
lfoot 1.46125 39.2139
ltoes -20.4917
383
root 0.264462 8.26795 -3.13961 -124.539 -3.449 -180.781
lowerback 34.941 -0.558601 3.42785
upperback 2.79019 0.0214116 2.11627
thorax -14.7116 -0.504057 0.555503
lowerneck -28.2921 0.743378 4.63049
upperneck 17.2812 -0.832255 0.0967258
head 10.103 -0.030053 -0.841113
rclavicle -1.39149e-014 -2.59911e-014
rhumerus -3.42809 -10.7317 -71.0452
rradius 68.4797
rwrist 27.9693
rhand -49.2564 -10.252
rfingers 7.12502
rthumb -21.8753 -39.0355
lclavicle -1.39149e-014 -2.59911e-014
lhumerus 36.5364 -10.7209 66.1339
lradius 39.5684
lwrist -41.484
lhand -42.2908 23.3954
lfingers 7.12502
lthumb -15.1753 52.8189
rfemur -81.9303 -20.0491 12.6359
rtibia 138.721
rfoot -30.5087 -14.8324
rtoes -34.0015
lfemur -37.1917 -21.7009 -25.009
ltibia 96.7605
lfoot 1.76967 39.2389
ltoes -20.4407
384
root 0.28041 8.24796 -3.22663 -124.457 -3.80852 -181.232
lowerback 34.5292 -0.817806 3.6334
upperback 2.81808 -0.243586 2.08565
thorax -14.5133 -0.623757 0.516811
lowerneck -28.3183 0.730843 4.63891
upperneck 17.3269 -0.880357 0.209742
head 10.124 -0.0348811 -0.809651
rclavicle 5.1684e-015 -9.49197e-015
rhumerus -1.82478 -10.2244 -70.8883
rradius 69.0883
rwrist 28.3424
rhand -48.9541 -9.85574
rfingers 7.12502
rthumb -21.5849 -38.6728
lclavicle 5.1684e-015 -9.49197e-015
lhumerus 35.9805 -10.8393 66.4508
lradius 39.5301
lwrist -41.6708
lhand -42.5571 23.4562
lfingers 7.12502
lthumb -15.4318 52.8602
rfemur -81.5607 -19.3082 12.373
rtibia 138.261
rfoot -30.1603 -15.2776
rtoes -34.2302
lfemur -36.547 -22.1667 -25.0257
ltibia 95.9918
lfoot 2.11058 39.2641
ltoes -20.391
385
root 0.296422 8.22596 -3.3123 -124.233 -4.18695 -181.714
lowerback 33.9732 -1.09795 3.88263
upperback 2.8227 -0.520707 2.0365
thorax -14.2839 -0.747972 0.434103
lowerneck -28.364 0.713649 4.6398
upperneck 17.3705 -0.934671 0.330202
head 10.1476 -0.0419552 -0.775285
rclavicle -2.98177e-014 1.61513e-014
rhumerus -0.104085 -9.72797 -70.7041
rradius 69.6085
rwrist 28.6958
rhand -48.5662 -9.39127
rfingers 7.12502
rthumb -21.2124 -38.2506
lclavicle -2.98177e-014 1.61513e-014
lhumerus 35.434 -10.9909 66.7041
lradius 39.5068
lwrist -41.7959
lhand -42.84 23.5478
lfingers 7.12502
lthumb -15.7042 52.9306
rfemur -81.2655 -18.6731 12.1366
rtibia 137.786
rfoot -29.7351 -15.7999
rtoes -34.5167
lfemur -36.0934 -22.6641 -24.9769
ltibia 95.2548
lfoot 2.49002 39.2783
ltoes -20.3511
386
root 0.314436 8.20257 -3.39817 -123.938 -4.56853 -182.212
lowerback 33.3603 -1.37618 4.14786
upperback 2.81093 -0.79248 1.97554
thorax -14.0502 -0.869641 0.323507
lowerneck -28.4353 0.68925 4.64053
upperneck 17.4189 -0.998074 0.439308
head 10.1769 -0.0544945 -0.746511
rclavicle 4.96962e-015 7.70291e-015
rhumerus 1.71709 -9.25698 -70.4804
rradius 70.0339
rwrist 29.0146
rhand -48.0612 -8.89055
rfingers 7.12502
rthumb -20.7272 -37.8036
lclavicle 4.96962e-015 7.70291e-015
lhumerus 34.8886 -11.1806 66.9182
lradius 39.4986
lwrist -41.8992
lhand -43.1496 23.684
lfingers 7.12502
lthumb -16.0024 53.0431
rfemur -80.9273 -18.1175 11.9226
rtibia 137.306
rfoot -29.2496 -16.3584
rtoes -34.8209
lfemur -35.722 -23.1594 -24.8835
ltibia 94.5234
lfoot 2.87661 39.2891
ltoes -20.309
387
root 0.335174 8.17847 -3.48386 -123.561 -4.95188 -182.718
lowerback 32.6925 -1.64866 4.4212
upperback 2.77339 -1.05594 1.90272
thorax -13.8233 -0.986799 0.187956
lowerneck -28.534 0.655812 4.63367
upperneck 17.4837 -1.07539 0.558493
head 10.2169 -0.0719986 -0.715229
rclavicle 1.37161e-014 -1.10822e-014
rhumerus 3.61589 -8.82023 -70.2403
rradius 70.3557
rwrist 29.305
rhand -47.4719 -8.4181
rfingers 7.12502
rthumb -20.1609 -37.3919
lclavicle 1.37161e-014 -1.10822e-014
lhumerus 34.3308 -11.4115 67.0917
lradius 39.4959
lwrist -41.9895
lhand -43.5055 23.8683
lfingers 7.12502
lthumb -16.3452 53.1995
rfemur -80.5918 -17.6612 11.7688
rtibia 136.856
rfoot -28.7059 -16.8966
rtoes -35.094
lfemur -35.4602 -23.6435 -24.7245
ltibia 93.7966
lfoot 3.22479 39.287
ltoes -20.2733
388
root 0.360373 8.15517 -3.57057 -123.181 -5.31217 -183.213
lowerback 32.0862 -1.90598 4.66724
upperback 2.71323 -1.30994 1.81775
thorax -13.6478 -1.09937 0.0492891
lowerneck -28.6706 0.621535 4.61515
upperneck 17.5769 -1.15544 0.691154
head 10.2738 -0.088754 -0.677752
rclavicle -1.21259e-014 3.00662e-014
rhumerus 5.58214 -8.40553 -70.0111
rradius 70.5617
rwrist 29.5828
rhand -46.8123 -7.96405
rfingers 7.12502
rthumb -19.5268 -37.0035
lclavicle -1.21259e-014 3.00662e-014
lhumerus 33.7529 -11.6658 67.2086
lradius 39.4939
lwrist -42.0399
lhand -43.9047 24.0864
lfingers 7.12502
lthumb -16.7294 53.3856
rfemur -80.1868 -17.2713 11.6811
rtibia 136.446
rfoot -28.198 -17.2555
rtoes -35.2641
lfemur -35.2001 -24.0736 -24.5327
ltibia 93.0482
lfoot 3.51806 39.266
ltoes -20.2233
389
root 0.39036 8.13388 -3.65709 -122.807 -5.63376 -183.677
lowerback 31.5673 -2.13405 4.87136
upperback 2.62523 -1.53861 1.72002
thorax -13.5407 -1.19993 -0.0899604
lowerneck -28.8105 0.635299 4.55791
upperneck 17.6865 -1.2572 0.84882
head 10.3386 -0.153113 -0.635748
rclavicle 9.93923e-016 -3.28989e-014
rhumerus 7.5891 -8.01961 -69.7878
rradius 70.6568
rwrist 29.7939
rhand -46.0845 -7.52287
rfingers 7.12502
rthumb -18.827 -36.6318
lclavicle 9.93923e-016 -3.28989e-014
lhumerus 33.1435 -11.9476 67.2901
lradius 39.5069
lwrist -42.0658
lhand -44.3232 24.3198
lfingers 7.12502
lthumb -17.1323 53.5845
rfemur -79.7677 -16.9612 11.6844
rtibia 136.104
rfoot -27.7752 -17.5696
rtoes -35.356
lfemur -34.9504 -24.4299 -24.3105
ltibia 92.2822
lfoot 3.79059 39.2201
ltoes -20.1423
